8888888888                888      8888888888                       
888                       888      888                              
888                       888      888                              
8888888  .d88b.   .d88b.  888      8888888 888d888 .d88b.   .d88b.  
888     d8P  Y8b d8P  Y8b 888      888     888P"  d8P  Y8b d8P  Y8b 
888     88888888 88888888 888      888     888    88888888 88888888 
888     Y8b.     Y8b.     888      888     888    Y8b.     Y8b.     
888      "Y8888   "Y8888  888      888     888     "Y8888   "Y8888  


################Credits To Feel Free, Pitic & Tony################


Genre:Action | Adventure
Language:English
IMDb: 
http://www.imdb.com/title/tt1764651
Source:ITALIAN CAM/Toothfairy Thanks
Encoder:Tony

Format : AVI
Format/Info : Audio Video Interleave
File size : 1.01 GiB
Duration : 1h 30mn
Overall bit rate : 1 599 Kbps

Video
ID : 0
Format : MPEG-4 Visual
Format profile : Advanced Simple@L5
Format settings, BVOP : 1
Format settings, QPel : No
Format settings, GMC : No warppoints
Format settings, Matrix : Default (H.263)
Codec ID : XVID
Codec ID/Hint : XviD
Duration : 1h 30mn
Bit rate : 1 396 Kbps
Width : 640 pixels
Height : 240 pixels
Display aspect ratio : 2.667
Frame rate : 29.970 fps
Color space : YUV
Chroma subsampling : 4:2:0
Bit depth : 8 bits
Scan type : Progressive
Compression mode : Lossy
Bits/(Pixel*Frame) : 0.303
Stream size : 904 MiB (87%)
Writing library : XviD 1.2.1 (UTC 2008-12-04)

Audio
ID : 1
Format : AC-3
Format/Info : Audio Coding 3
Mode extension : CM (complete main)
Codec ID : 2000
Duration : 1h 30mn
Bit rate mode : Constant
Bit rate : 192 Kbps
Channel(s) : 2 channels
Channel positions : Front: L R
Sampling rate : 48.0 KHz
Bit depth : 16 bits
Compression mode : Lossy
Stream size : 124 MiB (12%)
Alignment : Aligned on interleaves
Interleave, duration : 33 ms (1.00 video frame)
Interleave, preload duration : 512 ms


Plot:
Mr. Church reunites the Expendables for what should be an easy paycheck, but when one of their men is murdered on the job, their quest for revenge puts them deep in enemy territory and up against an unexpected threat.


Screen Shots:
                                                 
http://img842.imageshack.us/img842/5734/vlcsnap2012082017h51m49.png
 
http://img835.imageshack.us/img835/4475/vlcsnap2012082017h52m28.png
 
http://img580.imageshack.us/img580/3553/vlcsnap2012082017h51m54.png
 
http://img225.imageshack.us/img225/2095/vlcsnap2012082017h53m10.png
 
http://img832.imageshack.us/img832/4328/vlcsnap2012082017h53m38.png
 
http://img253.imageshack.us/img253/3845/vlcsnap2012082017h53m27.png


################Credits To Feel Free, Pitic & Tony################


8888888888                888      8888888888                       
888                       888      888                              
888                       888      888                              
8888888  .d88b.   .d88b.  888      8888888 888d888 .d88b.   .d88b.  
888     d8P  Y8b d8P  Y8b 888      888     888P"  d8P  Y8b d8P  Y8b 
888     88888888 88888888 888      888     888    88888888 88888888 
888     Y8b.     Y8b.     888      888     888    Y8b.     Y8b.     
888      "Y8888   "Y8888  888      888     888     "Y8888   "Y8888  